# xmcd CD database file
#
# Track frame offsets:
#	150
#	23275
#	45669
#	69748
#	89166
#	113862
#	132263
#	143878
#	159949
#	177300
#	186748
#	197113
#
# Disc length: 2902 seconds
#
# Revision: 2
# Processed by: cddbd v1.4PL0 Copyright (c) Steve Scherf et al.
# Submitted via: CDex 1.40Beta9
#
DISCID=ad0b540c
DTITLE=Insatanity   - Immortal Suffering - Split
DYEAR=1900
DGENRE=Metal
TTITLE0=Insatanity-Holocaust Divinity
TTITLE1=Insatanity-At One WIth Infinity
TTITLE2=Insatanity-Vengeance from Beyond the Grave
TTITLE3=Insatanity-Mortification
TTITLE4=Insatanity-The Great Abstinence
TTITLE5=Insatanity-Unjaded
TTITLE6=Immortal Suffering -Dawn of the Dead
TTITLE7=Immortal Suffering -Entangled Upon Lies
TTITLE8=Immortal Suffering -12
TTITLE9=Immortal Suffering -God's Little Children
TTITLE10=Immortal Suffering -I Murder
TTITLE11=Immortal Suffering -Corpse (Grave Diggers)
EXTD=ID3G: 9
EXTT0=
EXTT1=
EXTT2=
EXTT3=
EXTT4=
EXTT5=
EXTT6=
EXTT7=
EXTT8=
EXTT9=
EXTT10=
EXTT11=
PLAYORDER=
